<svg width="24" height="24" viewBox="0 0 24 24" fill="none" xmlns="http://www.w3.org/2000/svg">
<g clip-path="url(#clip0_535_2)">
<path d="M16.499 0C15.2195 0.0884995 13.724 0.907495 12.8525 1.97399C12.0575 2.94148 11.4035 4.37847 11.6585 5.77497C13.0565 5.81847 14.501 4.97997 15.338 3.89548C16.121 2.88598 16.7135 1.45799 16.499 0Z" fill="#2E2E2E"/>
<path d="M21.5553 8.05216C20.3268 6.51167 18.6003 5.61768 16.9698 5.61768C14.8174 5.61768 13.9069 6.64817 12.4114 6.64817C10.8694 6.64817 9.69789 5.62068 7.8364 5.62068C6.00791 5.62068 4.06092 6.73817 2.82643 8.64916C1.09094 11.3401 1.38794 16.3996 4.20042 20.7091C5.20692 22.2511 6.55091 23.9851 8.3089 24.0001C9.87339 24.0151 10.3144 22.9966 12.4339 22.9861C14.5534 22.9741 14.9554 24.0136 16.5169 23.9971C18.2763 23.9836 19.6938 22.0621 20.7003 20.5201C21.4218 19.4146 21.6903 18.8581 22.2498 17.6101C18.1803 16.0606 17.5278 10.2736 21.5553 8.05216Z" fill="#2E2E2E"/>
</g>
<defs>
<clipPath id="clip0_535_2">
<rect width="24" height="24" fill="white"/>
</clipPath>
</defs>
</svg>
