<svg width="24" height="24" viewBox="0 0 24 24" fill="none" xmlns="http://www.w3.org/2000/svg">
<path d="M1 21V16.45H2.5V19.5H5.55V21H1ZM18.425 21V19.5H21.475V16.45H22.975V21H18.425ZM3.825 18.225V5.75H5.825V18.225H3.825ZM6.85 18.225V5.75H7.9V18.225H6.85ZM9.9 18.225V5.75H11.975V18.225H9.9ZM13.025 18.225V5.75H16.05V18.225H13.025ZM17.1 18.225V5.75H18.15V18.225H17.1ZM19.175 18.225V5.75H20.125V18.225H19.175ZM1 7.55V3H5.55V4.5H2.5V7.55H1ZM21.475 7.55V4.5H18.425V3H22.975V7.55H21.475Z" fill="black"/>
</svg>
