<svg width="24" height="24" viewBox="0 0 24 24" fill="none" xmlns="http://www.w3.org/2000/svg">
<g clip-path="url(#clip0_4_411)">
<path d="M13.8087 12.002L1.75642 23.6074C1.19203 23.2217 0.856945 22.5802 0.86287 21.8966V2.10732C0.856945 1.42376 1.19203 0.782193 1.75642 0.396484L13.8087 12.002Z" fill="#2196F3"/>
<path d="M18.0263 7.94837L13.8091 12.0021L1.75684 0.396639C1.80225 0.361444 1.84955 0.328702 1.89848 0.298564C2.53546 -0.087502 3.33108 -0.0999656 3.97986 0.265873L18.0263 7.94837Z" fill="#4CAF50"/>
<path d="M23.137 12.002C23.1449 12.7737 22.7256 13.4864 22.0473 13.8545L18.0263 16.0557L13.8091 12.002L18.0263 7.94824L22.0473 10.1495C22.7256 10.5175 23.1449 11.2303 23.137 12.002Z" fill="#FFC107"/>
<path d="M18.0263 16.0557L3.97986 23.7382C3.32965 24.0984 2.53704 24.0859 1.89848 23.7055C1.84955 23.6754 1.80225 23.6426 1.75684 23.6074L13.8091 12.002L18.0263 16.0557Z" fill="#F44336"/>
</g>
<defs>
<clipPath id="clip0_4_411">
<rect width="24" height="24" fill="white"/>
</clipPath>
</defs>
</svg>
