<svg width="37" height="37" viewBox="0 0 37 37" fill="none" xmlns="http://www.w3.org/2000/svg">
<path d="M18.4967 19.0616C20.0373 17.5547 22.1093 16.6935 24.3091 16.6935C26.038 16.6935 27.6458 17.2183 28.9778 18.1265V12.6975C28.9778 10.8812 28.258 9.20613 27.0471 7.88757L27.0673 7.90104C28.1772 7.51758 28.9778 6.46812 28.9778 5.22355C28.9778 3.64939 27.7064 2.37793 26.1456 2.37793C24.5782 2.37793 23.3 3.64939 23.3 5.22355C23.3 5.31101 23.3067 5.4052 23.3134 5.49939C22.3447 5.16976 21.2885 4.99485 20.192 4.99485H16.8082C15.7049 4.99485 14.6218 5.18319 13.6127 5.53302L13.68 5.48593C13.6867 5.39847 13.6934 5.30428 13.6934 5.22355C13.6934 3.64939 12.422 2.37793 10.8612 2.37793C9.29378 2.37793 8.02236 3.64939 8.02236 5.22355C8.02236 6.46812 8.82291 7.51084 9.92615 7.90104C8.74887 9.18593 8.01562 10.8274 8.01562 12.6975V18.1332C9.34761 17.225 10.9487 16.6935 12.6844 16.6935C14.8841 16.6935 16.9562 17.5547 18.4967 19.0616ZM26.038 3.67629C26.9462 3.67629 27.6862 4.41627 27.6862 5.32448C27.6862 5.69447 27.3834 5.99721 27.0134 5.99721C26.6434 5.99721 26.3407 5.69447 26.3407 5.32448C26.3407 5.1563 26.2062 5.02174 26.038 5.02174C25.668 5.02174 25.3652 4.71901 25.3652 4.34902C25.3652 3.97902 25.668 3.67629 26.038 3.67629ZM22.6542 10.8274C23.4749 10.8274 24.1341 11.4934 24.1341 12.3074C24.1341 13.1214 23.4749 13.7874 22.6542 13.7874C21.8402 13.7874 21.1809 13.1214 21.1809 12.3074C21.1809 11.4934 21.8402 10.8274 22.6542 10.8274ZM14.3392 10.8274C15.1533 10.8274 15.8125 11.4934 15.8125 12.3074C15.8125 13.1214 15.1533 13.7874 14.3392 13.7874C13.5185 13.7874 12.8593 13.1214 12.8593 12.3074C12.8593 11.4934 13.5185 10.8274 14.3392 10.8274ZM10.9622 5.02174C10.794 5.02174 10.6594 5.1563 10.6594 5.32448C10.6594 5.69447 10.3634 5.99721 9.98671 5.99721C9.61672 5.99721 9.31398 5.69447 9.31398 5.32448C9.31398 4.41627 10.054 3.67629 10.9622 3.67629C11.3322 3.67629 11.6349 3.97902 11.6349 4.34902C11.6349 4.71901 11.3322 5.02174 10.9622 5.02174Z" fill="white"/>
<path d="M24.3091 18.0391C21.8806 18.0391 19.7481 19.2769 18.4968 21.1673C17.2455 19.2769 15.113 18.0391 12.6844 18.0391C8.83641 18.0391 5.72168 21.1605 5.72168 25.0018C5.72168 27.2016 6.74424 29.1727 8.34533 30.4442V32.9198C8.34533 33.8549 9.11225 34.6218 10.0406 34.6218C10.9824 34.6218 11.7493 33.8549 11.7493 32.9198V31.904C12.0521 31.9444 12.3682 31.9645 12.6844 31.9645H17.8241V26.2463C17.8241 25.8696 18.1268 25.5736 18.4968 25.5736C18.8668 25.5736 19.1695 25.8696 19.1695 26.2463V31.9645H24.3091C24.6253 31.9645 24.9415 31.9444 25.251 31.8973V32.9198C25.251 33.8549 26.0112 34.6218 26.9529 34.6218C27.8881 34.6218 28.6482 33.8549 28.6482 32.9198V30.4442C30.2493 29.1727 31.2786 27.2016 31.2786 25.0018C31.2786 21.1605 28.1639 18.0391 24.3091 18.0391ZM11.561 26.5558C10.4644 26.5558 9.57643 25.6678 9.57643 24.5713C9.57643 23.4747 10.4644 22.58 11.561 22.58C12.6575 22.58 13.5522 23.4747 13.5522 24.5713C13.5522 25.6678 12.6575 26.5558 11.561 26.5558ZM25.4326 26.5558C24.3361 26.5558 23.4413 25.6678 23.4413 24.5713C23.4413 23.4747 24.3361 22.58 25.4326 22.58C26.5292 22.58 27.4171 23.4747 27.4171 24.5713C27.4171 25.6678 26.5292 26.5558 25.4326 26.5558Z" fill="white"/>
</svg>
