<svg width="56" height="56" viewBox="0 0 56 56" fill="none" xmlns="http://www.w3.org/2000/svg">
<rect width="56" height="56" rx="28" fill="#4896AE"/>
<path d="M34.7316 15.9074L35.9184 13.688C36.1527 13.2696 36.2706 12.7961 36.2599 12.3167C36.2493 11.8373 36.1104 11.3695 35.8578 10.9619C35.6487 10.6185 35.3556 10.334 35.006 10.1353C34.6565 9.93654 34.2621 9.83012 33.8601 9.82605H33.6595C32.6776 9.82605 31.7949 10.4609 31.4303 11.4291L30.4878 14.0952C32.026 14.355 33.4806 14.976 34.7322 15.9072L34.7316 15.9074Z" fill="#D18D78"/>
<path d="M34.2059 10.962C33.9073 10.4857 33.4513 10.129 32.9172 9.95374C32.5762 10.0753 32.2661 10.2706 32.0091 10.5256C31.7521 10.7807 31.5545 11.0892 31.4303 11.4293L30.4878 14.0955C31.5393 14.2771 32.5542 14.6287 33.4927 15.1366L34.2671 13.6885C34.5014 13.27 34.6193 12.7964 34.6085 12.3169C34.5977 11.8374 34.4587 11.3695 34.2059 10.962Z" fill="#BC7764"/>
<path d="M25.5118 14.0952L24.5694 11.4291C24.2048 10.4609 23.3218 9.82605 22.3402 9.82605H22.1395C21.7375 9.83012 21.3431 9.93654 20.9936 10.1353C20.6441 10.334 20.3509 10.6185 20.1419 10.9619C19.8891 11.3694 19.7502 11.8372 19.7394 12.3166C19.7287 12.796 19.8465 13.2696 20.0807 13.688L21.2682 15.9073C22.5197 14.9763 23.9742 14.3554 25.5123 14.0956L25.5118 14.0952Z" fill="#D18D78"/>
<path d="M24.5695 11.429C24.4453 11.0889 24.2477 10.7803 23.9907 10.5253C23.7337 10.2702 23.4236 10.075 23.0826 9.95337C22.5485 10.1288 22.0927 10.4856 21.7942 10.9619C21.5415 11.3694 21.4025 11.8372 21.3918 12.3166C21.381 12.796 21.4989 13.2696 21.7331 13.688L22.5075 15.1359C23.4458 14.6281 24.4605 14.2766 25.5118 14.0951L24.5695 11.429Z" fill="#BC7764"/>
<path d="M39.565 39.3966C38.2882 40.0555 36.8713 40.3967 35.4346 40.3913C33.2615 39.3048 30.8654 38.7391 28.4359 38.7391H27.5637C25.1342 38.7391 22.738 39.3048 20.565 40.3913C19.1282 40.3967 17.7114 40.0555 16.4346 39.3966V41.2174C16.4346 42.532 16.9568 43.7927 17.8863 44.7222C18.8158 45.6517 20.0765 46.1739 21.3911 46.1739H34.6085C35.923 46.1739 37.1838 45.6517 38.1133 44.7222C39.0428 43.7927 39.565 42.532 39.565 41.2174V39.3965V39.3966Z" fill="#D18D78"/>
<path d="M38.7336 23.5318C38.6475 20.9621 37.5657 18.5266 35.7169 16.7398C33.8681 14.953 31.3971 13.955 28.826 13.9565H27.1738C24.6026 13.9548 22.1315 14.9528 20.2826 16.7397C18.4338 18.5265 17.3521 20.9622 17.2661 23.5319C17.3576 23.4228 17.4583 23.3116 17.5683 23.1982C18.1451 22.6044 18.9127 22.2172 19.7405 22.2172C20.6166 22.2176 21.4567 22.5659 22.0761 23.1856C22.6955 23.8053 23.0434 24.6456 23.0434 25.5218C23.0379 25.6349 23.0266 25.7476 23.0093 25.8595L24.7876 25.24C25.8203 24.8798 26.9062 24.6958 27.9999 24.6957C29.0935 24.6957 30.1794 24.8795 31.2121 25.2395L32.9905 25.8591C32.9732 25.7473 32.9618 25.6347 32.9564 25.5218C32.9564 24.6456 33.3043 23.8054 33.9237 23.1857C34.5431 22.5661 35.3832 22.2178 36.2593 22.2174C37.087 22.2174 37.8547 22.6044 38.4315 23.1984C38.5416 23.3118 38.6423 23.423 38.7336 23.532V23.5318Z" fill="#E0A089"/>
<path d="M36.259 22.2175C37.0868 22.2175 37.8544 22.6045 38.4311 23.1984C38.4485 23.2162 38.4621 23.2331 38.4786 23.2508C37.9668 21.0753 36.7348 19.1366 34.9825 17.7494C33.2303 16.3621 31.0606 15.6078 28.8257 15.6088H27.1735C24.9386 15.6077 22.7689 16.3619 21.0165 17.7492C19.2642 19.1364 18.0322 21.0752 17.5205 23.2508C17.5373 23.233 17.5508 23.216 17.5681 23.1982C18.1448 22.6045 18.9125 22.2173 19.7402 22.2173C20.6164 22.2176 21.4565 22.566 22.0759 23.1857C22.6952 23.8054 23.0432 24.6457 23.0431 25.5218C23.0377 25.6349 23.0263 25.7477 23.009 25.8596L24.7874 25.24C26.8675 24.5149 29.1318 24.5149 31.2119 25.24L32.9902 25.8596C32.9729 25.7477 32.9616 25.6349 32.9561 25.5218C32.9561 24.6457 33.3041 23.8054 33.9235 23.1858C34.5428 22.5662 35.3829 22.2178 36.259 22.2175Z" fill="#CC8C79"/>
<path d="M35.4346 40.3913C33.2616 39.3048 30.8655 38.7391 28.4359 38.7391H27.5638C25.1343 38.7391 22.7381 39.3048 20.5651 40.3913C16.0027 40.3913 12.3042 37.0626 12.3042 32.9565C12.3042 30.1509 14.0323 27.71 16.5814 26.4442C16.3141 25.5296 16.2922 24.5118 17.5682 23.1981C18.145 22.6044 18.9127 22.2172 19.7404 22.2172C20.6166 22.2175 21.4567 22.5659 22.0761 23.1856C22.6955 23.8053 23.0434 24.6456 23.0433 25.5217C23.0379 25.6348 23.0265 25.7476 23.0093 25.8595L24.7876 25.2399C25.8203 24.8797 26.9062 24.6957 27.9999 24.6956C29.0935 24.6956 30.1794 24.8795 31.2121 25.2395L32.9905 25.8591C32.9732 25.7473 32.9618 25.6347 32.9564 25.5217C32.9564 24.6456 33.3043 23.8053 33.9237 23.1857C34.5431 22.5661 35.3832 22.2178 36.2593 22.2174C37.087 22.2174 37.8547 22.6044 38.4315 23.1983C39.7076 24.512 39.6856 25.5298 39.4183 26.4445C41.9674 27.71 43.6955 30.1509 43.6955 32.9565C43.6955 37.0626 39.997 40.3913 35.4346 40.3913Z" fill="#E0A089"/>
<path d="M12.5225 31.3266C13.3679 34.6251 16.6436 37.0869 20.5651 37.0869C22.7382 36.0004 25.1343 35.4348 27.5639 35.4348H28.436C30.8655 35.4348 33.2617 36.0004 35.4347 37.0869C39.3563 37.0869 42.632 34.6251 43.4774 31.3266C42.9528 29.226 41.4569 27.4565 39.4184 26.4442C39.6857 25.5296 39.7075 24.5118 38.4314 23.1981C37.8547 22.6044 37.0871 22.2172 36.2594 22.2172C35.3832 22.2175 34.5431 22.5659 33.9237 23.1856C33.3043 23.8053 32.9564 24.6456 32.9565 25.5217C32.9619 25.6348 32.9733 25.7476 32.9905 25.8595L31.2122 25.2399C29.1321 24.5148 26.8678 24.5148 24.7877 25.2399L23.0093 25.8595C23.0266 25.7476 23.038 25.6348 23.0434 25.5217C23.0434 24.6456 22.6955 23.8053 22.0761 23.1857C21.4567 22.5661 20.6166 22.2178 19.7405 22.2174C18.9128 22.2174 18.1451 22.6044 17.5684 23.1983C16.2922 24.512 16.3142 25.5298 16.5814 26.4445C14.543 27.4565 13.047 29.226 12.5225 31.3266Z" fill="#F2B9A1"/>
<path d="M23.0433 42.8696H24.6955C25.1336 42.8696 25.5539 42.6956 25.8637 42.3857C26.1736 42.0759 26.3476 41.6556 26.3476 41.2175V38.7925C24.6401 38.9236 22.9656 39.3342 21.3911 40.008V41.2175C21.3911 41.6556 21.5652 42.0759 21.875 42.3857C22.1849 42.6956 22.6051 42.8696 23.0433 42.8696Z" fill="#E2E7F6"/>
<path d="M23.8692 41.2175H25.5213C25.8122 41.2159 26.0973 41.1368 26.3474 40.9883V38.7925C24.9407 38.9047 23.5556 39.2062 22.2295 39.6888C22.2593 40.1035 22.445 40.4916 22.7491 40.7752C23.0532 41.0587 23.4534 41.2167 23.8692 41.2175Z" fill="#F2F2F2"/>
<path d="M34.6084 40.008C33.0339 39.3342 31.3594 38.9236 29.6519 38.7925V41.2175C29.6519 41.6556 29.8259 42.0759 30.1358 42.3857C30.4456 42.6956 30.8658 42.8696 31.304 42.8696H32.9562C33.3944 42.8696 33.8146 42.6956 34.1245 42.3857C34.4343 42.0759 34.6084 41.6556 34.6084 41.2175V40.008Z" fill="#E2E7F6"/>
<path d="M30.4779 41.2175H32.1301C32.5459 41.2167 32.9459 41.0588 33.2501 40.7753C33.5542 40.4918 33.7398 40.1039 33.7698 39.6892C32.4437 39.2065 31.0586 38.9048 29.6519 38.7925V40.9883C29.9019 41.1368 30.1871 41.2159 30.4779 41.2175Z" fill="#F2F2F2"/>
<path d="M21.3909 34.6087C22.7596 34.6087 23.8691 33.4992 23.8691 32.1305C23.8691 30.7618 22.7596 29.6522 21.3909 29.6522C20.0222 29.6522 18.9126 30.7618 18.9126 32.1305C18.9126 33.4992 20.0222 34.6087 21.3909 34.6087Z" fill="#A35F4F"/>
<path d="M21.391 29.6522C21.1499 29.6557 20.9105 29.6947 20.6808 29.7681C20.6074 29.9978 20.5684 30.2372 20.5649 30.4783C20.5649 31.1356 20.826 31.7659 21.2908 32.2307C21.7556 32.6955 22.3859 32.9566 23.0432 32.9566C23.2844 32.9531 23.5237 32.9141 23.7534 32.8407C23.8268 32.611 23.8659 32.3716 23.8693 32.1305C23.8693 31.4732 23.6082 30.8429 23.1434 30.3781C22.6787 29.9133 22.0483 29.6522 21.391 29.6522Z" fill="#BC7764"/>
<path d="M34.6081 34.6087C35.9769 34.6087 37.0864 33.4992 37.0864 32.1305C37.0864 30.7618 35.9769 29.6522 34.6081 29.6522C33.2394 29.6522 32.1299 30.7618 32.1299 32.1305C32.1299 33.4992 33.2394 34.6087 34.6081 34.6087Z" fill="#A35F4F"/>
<path d="M34.6083 29.6522C34.3672 29.6557 34.1278 29.6947 33.8981 29.7681C33.8247 29.9978 33.7857 30.2372 33.7822 30.4783C33.7822 31.1356 34.0433 31.7659 34.5081 32.2307C34.9729 32.6955 35.6032 32.9566 36.2605 32.9566C36.5016 32.9531 36.741 32.9141 36.9707 32.8407C37.0441 32.611 37.0831 32.3716 37.0866 32.1305C37.0866 31.4732 36.8255 30.8429 36.3607 30.3781C35.8959 29.9133 35.2656 29.6522 34.6083 29.6522Z" fill="#BC7764"/>
<path d="M40.358 26.0139C40.4688 25.2336 40.3508 24.2941 39.5356 23.2213C39.4545 21.7765 39.0806 20.3632 38.4365 19.0674C37.7925 17.7716 36.8917 16.6202 35.7888 15.6833L36.6378 14.095C36.943 13.5461 37.0964 12.9258 37.0823 12.2979C37.0681 11.6701 36.8868 11.0573 36.5571 10.5228C36.2743 10.0603 35.8781 9.67776 35.4061 9.41128C34.9341 9.14479 34.4019 9.00323 33.8598 9H33.659C32.3246 9 31.146 9.839 30.6511 11.1535L29.9322 13.1871C29.5646 13.1497 29.1954 13.1308 28.8259 13.1304H27.1737C26.8042 13.1308 26.4349 13.1497 26.0673 13.1871L25.3429 11.1375C24.8535 9.83899 23.6749 9 22.3411 9H22.1397C21.5977 9.00317 21.0655 9.14466 20.5935 9.41105C20.1215 9.67744 19.7253 10.0599 19.4424 10.5223C19.1137 11.0538 18.9321 11.6632 18.9163 12.2879C18.9005 12.9127 19.051 13.5305 19.3525 14.078L20.211 15.6824C19.108 16.6194 18.2071 17.7709 17.5629 19.0669C16.9188 20.3629 16.5449 21.7763 16.464 23.2213C15.6482 24.2941 15.5307 25.2336 15.6415 26.0139C13.0579 27.5285 11.478 30.1366 11.478 32.9565C11.478 35.8494 13.1252 38.3953 15.6085 39.8713V41.2174C15.6102 42.7505 16.22 44.2203 17.3041 45.3044C18.3881 46.3885 19.858 46.9983 21.3911 47H34.6085C36.1416 46.9983 37.6114 46.3885 38.6955 45.3044C39.7796 44.2203 40.3894 42.7505 40.3911 41.2174V39.8713C42.8743 38.3953 44.5215 35.8494 44.5215 32.9565C44.5215 30.1366 42.9416 27.5285 40.358 26.0139ZM32.2032 11.7203C32.4472 11.0713 33.019 10.6522 33.6592 10.6522H33.86C34.1221 10.6562 34.3789 10.7271 34.606 10.8581C34.833 10.9891 35.0229 11.1759 35.1576 11.4008C35.3321 11.6854 35.4272 12.0115 35.433 12.3453C35.4387 12.679 35.3549 13.0082 35.1903 13.2986L34.4376 14.7064C33.5484 14.1643 32.5845 13.7556 31.5767 13.4932L32.2032 11.7203ZM20.8001 13.2821C20.6393 12.9931 20.5584 12.6664 20.5658 12.3358C20.5732 12.0051 20.6686 11.6824 20.8421 11.4008C20.9769 11.1759 21.1667 10.9891 21.3938 10.8581C21.6209 10.7271 21.8776 10.6562 22.1397 10.6522H22.3411C22.6613 10.6587 22.9718 10.763 23.231 10.9511C23.4902 11.1392 23.6857 11.4021 23.7912 11.7045L24.4234 13.4931C23.4158 13.7555 22.4522 14.1643 21.5631 14.7062L20.8001 13.2821ZM27.1737 14.7826H28.8259C30.8575 14.774 32.8328 15.45 34.4331 16.7016C36.0335 17.9532 37.1656 19.7073 37.6469 21.6812C37.2086 21.4936 36.7374 21.3951 36.2606 21.3913H36.259C35.3046 21.3931 34.3803 21.7248 33.6424 22.3301C32.9045 22.9353 32.3985 23.777 32.2101 24.7126L31.4844 24.4593C29.2275 23.6768 26.7729 23.6768 24.516 24.4593L23.7902 24.7126C23.6018 23.7769 23.0958 22.9352 22.3578 22.3299C21.6199 21.7246 20.6954 21.3931 19.741 21.3913H19.7389C19.262 21.3951 18.7906 21.4936 18.3521 21.6812C18.8334 19.7073 19.9656 17.953 21.5661 16.7015C23.1666 15.4499 25.142 14.7739 27.1737 14.7826ZM38.7389 41.2174C38.7376 42.3125 38.302 43.3623 37.5277 44.1366C36.7534 44.911 35.7035 45.3465 34.6085 45.3478H21.3911C20.296 45.3465 19.2462 44.911 18.4718 44.1366C17.6975 43.3623 17.2619 42.3125 17.2606 41.2174V40.6437C18.3211 41.0229 19.4388 41.217 20.565 41.2174C20.5657 41.8744 20.8271 42.5044 21.2917 42.969C21.7563 43.4336 22.3862 43.6949 23.0432 43.6957H24.6954C25.3525 43.6949 25.9824 43.4336 26.447 42.969C26.9116 42.5044 27.1729 41.8744 27.1737 41.2174V39.5767C27.3037 39.5733 27.4337 39.5652 27.5637 39.5652H28.4358C28.5658 39.5652 28.6959 39.5733 28.8259 39.5767V41.2174C28.8266 41.8744 29.0879 42.5044 29.5525 42.969C30.0171 43.4336 30.6471 43.6949 31.3041 43.6957H32.9563C33.6133 43.6949 34.2433 43.4336 34.7079 42.969C35.1725 42.5044 35.4338 41.8744 35.4346 41.2174C36.5607 41.217 37.6785 41.0229 38.7389 40.6437V41.2174ZM22.2172 40.5702C23.2823 40.1594 24.391 39.8721 25.5215 39.7139V41.2174C25.5212 41.4364 25.4341 41.6463 25.2792 41.8012C25.1244 41.9561 24.9144 42.0432 24.6954 42.0435H23.0432C22.8242 42.0432 22.6143 41.9561 22.4594 41.8012C22.3046 41.6463 22.2175 41.4364 22.2172 41.2174V40.5702ZM30.478 39.7139C31.6086 39.8721 32.7173 40.1594 33.7824 40.5702V41.2174C33.7821 41.4364 33.6949 41.6463 33.5401 41.8012C33.3852 41.9561 33.1753 42.0432 32.9563 42.0435H31.3041C31.0851 42.0432 30.8752 41.9561 30.7203 41.8012C30.5655 41.6463 30.4783 41.4364 30.478 41.2174V39.7139ZM35.6225 39.5632C33.3813 38.48 30.9248 37.9159 28.4355 37.913H27.5634C25.0742 37.9159 22.6176 38.48 20.3764 39.5632C16.3639 39.474 13.1302 36.5448 13.1302 32.9565C13.1302 30.5654 14.5932 28.3538 16.9488 27.1842C17.1225 27.098 17.2604 26.9534 17.3382 26.7757C17.416 26.5981 17.4288 26.3987 17.3744 26.2126C17.1886 25.5788 17.0973 24.8689 18.1606 23.7737C18.618 23.3031 19.1786 23.0437 19.7393 23.0437H19.7401C20.3969 23.0448 21.0265 23.3063 21.4908 23.7708C21.9551 24.2353 22.2163 24.865 22.2172 25.5217C22.2155 25.5604 22.2113 25.5989 22.2047 25.6371L22.1873 25.7767C22.1734 25.9149 22.1946 26.0543 22.2488 26.1821C22.3031 26.31 22.3887 26.4221 22.4977 26.5081C22.6067 26.5941 22.7357 26.6512 22.8727 26.6741C23.0096 26.6971 23.1501 26.6852 23.2813 26.6394L25.0592 26.0199C26.9639 25.3592 29.0356 25.3592 30.9403 26.0199L32.7183 26.6394C32.8494 26.6852 32.9899 26.6971 33.1269 26.6741C33.2638 26.6512 33.3928 26.5941 33.5018 26.5081C33.6109 26.4221 33.6965 26.31 33.7507 26.1821C33.805 26.0543 33.8261 25.9149 33.8122 25.7767L33.7949 25.6371C33.7882 25.5989 33.7841 25.5604 33.7824 25.5217C33.7832 24.8649 34.0444 24.2352 34.5087 23.7707C34.973 23.3061 35.6026 23.0446 36.2594 23.0435H36.2606C36.8213 23.0435 37.382 23.3029 37.8394 23.7735C38.903 24.8687 38.8111 25.5786 38.6255 26.2124C38.5711 26.3985 38.5839 26.5979 38.6618 26.7755C38.7396 26.9532 38.8774 27.0978 39.0512 27.184C41.4063 28.3538 42.8693 30.5654 42.8693 32.9565C42.8693 36.5448 39.6356 39.474 35.6225 39.5632Z" fill="black"/>
<path d="M21.3908 28.826C20.7372 28.826 20.0984 29.0198 19.555 29.3829C19.0116 29.746 18.5881 30.2621 18.338 30.8659C18.0879 31.4697 18.0224 32.1341 18.1499 32.775C18.2774 33.416 18.5921 34.0048 19.0542 34.4669C19.5164 34.929 20.1051 35.2438 20.7461 35.3713C21.3871 35.4988 22.0515 35.4333 22.6553 35.1832C23.2591 34.9331 23.7752 34.5096 24.1382 33.9662C24.5013 33.4228 24.6951 32.7839 24.6951 32.1304C24.6941 31.2543 24.3457 30.4144 23.7262 29.795C23.1067 29.1755 22.2668 28.827 21.3908 28.826ZM21.3908 33.7826C21.064 33.7826 20.7446 33.6857 20.4729 33.5041C20.2012 33.3226 19.9894 33.0646 19.8644 32.7627C19.7393 32.4608 19.7066 32.1286 19.7703 31.8081C19.8341 31.4876 19.9915 31.1932 20.2225 30.9621C20.4536 30.7311 20.748 30.5737 21.0685 30.51C21.3889 30.4462 21.7211 30.4789 22.023 30.604C22.3249 30.729 22.583 30.9408 22.7645 31.2125C22.9461 31.4842 23.043 31.8036 23.043 32.1304C23.0425 32.5684 22.8683 32.9884 22.5586 33.2982C22.2488 33.6079 21.8288 33.7821 21.3908 33.7826Z" fill="black"/>
<path d="M34.6086 28.826C33.955 28.826 33.3161 29.0198 32.7728 29.3829C32.2294 29.746 31.8058 30.2621 31.5557 30.8659C31.3056 31.4697 31.2402 32.1341 31.3677 32.775C31.4952 33.416 31.8099 34.0048 32.272 34.4669C32.7341 34.929 33.3229 35.2438 33.9639 35.3713C34.6049 35.4988 35.2693 35.4333 35.8731 35.1832C36.4769 34.9331 36.9929 34.5096 37.356 33.9662C37.7191 33.4228 37.9129 32.7839 37.9129 32.1304C37.9119 31.2543 37.5635 30.4144 36.944 29.795C36.3245 29.1755 35.4846 28.827 34.6086 28.826ZM34.6086 33.7826C34.2818 33.7826 33.9624 33.6857 33.6907 33.5041C33.419 33.3226 33.2072 33.0646 33.0821 32.7627C32.9571 32.4608 32.9244 32.1286 32.9881 31.8081C33.0519 31.4876 33.2092 31.1932 33.4403 30.9621C33.6713 30.7311 33.9657 30.5737 34.2862 30.51C34.6067 30.4462 34.9389 30.4789 35.2408 30.604C35.5427 30.729 35.8007 30.9408 35.9823 31.2125C36.1638 31.4842 36.2607 31.8036 36.2607 32.1304C36.2603 32.5684 36.0861 32.9884 35.7763 33.2982C35.4666 33.6079 35.0466 33.7821 34.6086 33.7826Z" fill="black"/>
<circle cx="25.2406" cy="21.2334" r="1.52918" fill="black"/>
<circle cx="30.3378" cy="21.2334" r="1.52918" fill="black"/>
</svg>
