<svg width="20" height="20" viewBox="0 0 20 20" fill="none" xmlns="http://www.w3.org/2000/svg">
<path d="M12.5 0V5H17.5L12.5 0Z" fill="#4F4F4F"/>
<path d="M12.5 6.25C11.8112 6.25 11.25 5.68875 11.25 5V0H3.75C3.06125 0 2.5 0.56125 2.5 1.25V18.75C2.5 19.44 3.06125 20 3.75 20H16.25C16.94 20 17.5 19.44 17.5 18.75V6.25H12.5ZM6.875 3.8275V3.125C6.875 2.78 7.155 2.5 7.5 2.5C7.845 2.5 8.125 2.78 8.125 3.125V3.82875C8.51625 3.9175 8.88125 4.0825 9.1825 4.3275C9.45125 4.545 9.49125 4.93875 9.2725 5.20625C9.05375 5.475 8.66 5.51375 8.39375 5.29625C8.1575 5.105 7.84 5 7.5 5C6.8225 5 6.25 5.42875 6.25 5.9375C6.25 6.44625 6.8225 6.875 7.5 6.875C8.87875 6.875 10 7.85625 10 9.0625C10 10.0787 9.2 10.9275 8.125 11.1725V11.875C8.125 12.22 7.845 12.5 7.5 12.5C7.155 12.5 6.875 12.22 6.875 11.875V11.1713C6.48375 11.0825 6.11875 10.9175 5.8175 10.6725C5.54875 10.4538 5.50875 10.06 5.7275 9.7925C5.94625 9.5225 6.33875 9.485 6.60625 9.7025C6.8425 9.895 7.16 10 7.5 10C8.1775 10 8.75 9.57125 8.75 9.0625C8.75 8.55375 8.1775 8.125 7.5 8.125C6.12125 8.125 5 7.14375 5 5.9375C5 4.92125 5.8 4.0725 6.875 3.8275ZM14.375 17.5H5.625C5.28 17.5 5 17.22 5 16.875C5 16.53 5.28 16.25 5.625 16.25H14.375C14.72 16.25 15 16.53 15 16.875C15 17.22 14.72 17.5 14.375 17.5ZM14.375 15H5.625C5.28 15 5 14.72 5 14.375C5 14.03 5.28 13.75 5.625 13.75H14.375C14.72 13.75 15 14.03 15 14.375C15 14.72 14.72 15 14.375 15ZM14.375 12.5H11.875C11.53 12.5 11.25 12.22 11.25 11.875C11.25 11.53 11.53 11.25 11.875 11.25H14.375C14.72 11.25 15 11.53 15 11.875C15 12.22 14.72 12.5 14.375 12.5ZM14.375 10H11.875C11.53 10 11.25 9.72 11.25 9.375C11.25 9.03 11.53 8.75 11.875 8.75H14.375C14.72 8.75 15 9.02875 15 9.375C15 9.72 14.72 10 14.375 10Z" fill="#4F4F4F"/>
</svg>
