<svg width="20" height="20" viewBox="0 0 20 20" fill="none" xmlns="http://www.w3.org/2000/svg">
<path d="M18.3332 5.625C18.6748 5.625 18.9582 5.34167 18.9582 5V3.75C18.9582 3.40833 18.6748 3.125 18.3332 3.125C18.1748 3.125 18.0082 3.05833 17.8915 2.94167C17.7748 2.825 17.7082 2.66667 17.7082 2.5C17.7082 2.15833 17.4248 1.875 17.0832 1.875H15.4165C15.0748 1.875 14.7915 2.15833 14.7915 2.5C14.7915 2.84167 14.5082 3.125 14.1665 3.125C13.8248 3.125 13.5415 2.84167 13.5415 2.5C13.5415 2.15833 13.2582 1.875 12.9165 1.875H11.2498C10.9082 1.875 10.6248 2.15833 10.6248 2.5C10.6248 2.84167 10.3415 3.125 9.99984 3.125C9.65817 3.125 9.37484 2.84167 9.37484 2.5C9.37484 2.15833 9.0915 1.875 8.74984 1.875H7.08317C6.7415 1.875 6.45817 2.15833 6.45817 2.5C6.45817 2.84167 6.17484 3.125 5.83317 3.125C5.4915 3.125 5.20817 2.84167 5.20817 2.5C5.20817 2.15833 4.92484 1.875 4.58317 1.875H2.9165C2.57484 1.875 2.2915 2.15833 2.2915 2.5C2.2915 2.66667 2.22484 2.825 2.10817 2.94167C1.9915 3.05833 1.82484 3.125 1.6665 3.125C1.32484 3.125 1.0415 3.40833 1.0415 3.75V5C1.0415 5.34167 1.32484 5.625 1.6665 5.625C2.00817 5.625 2.2915 5.90833 2.2915 6.25C2.2915 6.59167 2.00817 6.875 1.6665 6.875C1.32484 6.875 1.0415 7.15833 1.0415 7.5V8.75C1.0415 9.09167 1.32484 9.375 1.6665 9.375C2.00817 9.375 2.2915 9.65833 2.2915 10C2.2915 10.3417 2.00817 10.625 1.6665 10.625C1.32484 10.625 1.0415 10.9083 1.0415 11.25V12.5C1.0415 12.8417 1.32484 13.125 1.6665 13.125C2.00817 13.125 2.2915 13.4083 2.2915 13.75C2.2915 14.0917 2.00817 14.375 1.6665 14.375C1.32484 14.375 1.0415 14.6583 1.0415 15V16.25C1.0415 16.5917 1.32484 16.875 1.6665 16.875C1.82484 16.875 1.9915 16.9417 2.10817 17.0583C2.22484 17.175 2.2915 17.3333 2.2915 17.5C2.2915 17.8417 2.57484 18.125 2.9165 18.125H4.58317C4.92484 18.125 5.20817 17.8417 5.20817 17.5C5.20817 17.1583 5.4915 16.875 5.83317 16.875C6.17484 16.875 6.45817 17.1583 6.45817 17.5C6.45817 17.8417 6.7415 18.125 7.08317 18.125H8.74984C9.0915 18.125 9.37484 17.8417 9.37484 17.5C9.37484 17.1583 9.65817 16.875 9.99984 16.875C10.3415 16.875 10.6248 17.1583 10.6248 17.5C10.6248 17.8417 10.9082 18.125 11.2498 18.125H12.9165C13.2582 18.125 13.5415 17.8417 13.5415 17.5C13.5415 17.1583 13.8248 16.875 14.1665 16.875C14.5082 16.875 14.7915 17.1583 14.7915 17.5C14.7915 17.8417 15.0748 18.125 15.4165 18.125H17.0832C17.4248 18.125 17.7082 17.8417 17.7082 17.5C17.7082 17.3333 17.7748 17.175 17.8915 17.0583C18.0082 16.9417 18.1748 16.875 18.3332 16.875C18.6748 16.875 18.9582 16.5917 18.9582 16.25V15C18.9582 14.6583 18.6748 14.375 18.3332 14.375C17.9915 14.375 17.7082 14.0917 17.7082 13.75C17.7082 13.4083 17.9915 13.125 18.3332 13.125C18.6748 13.125 18.9582 12.8417 18.9582 12.5V11.25C18.9582 10.9083 18.6748 10.625 18.3332 10.625C17.9915 10.625 17.7082 10.3417 17.7082 10C17.7082 9.65833 17.9915 9.375 18.3332 9.375C18.6748 9.375 18.9582 9.09167 18.9582 8.75V7.5C18.9582 7.15833 18.6748 6.875 18.3332 6.875C17.9915 6.875 17.7082 6.59167 17.7082 6.25C17.7082 5.90833 17.9915 5.625 18.3332 5.625ZM13.3332 12.2917H6.6665C6.32484 12.2917 6.0415 12.0083 6.0415 11.6667C6.0415 11.325 6.32484 11.0417 6.6665 11.0417H13.3332C13.6748 11.0417 13.9582 11.325 13.9582 11.6667C13.9582 12.0083 13.6748 12.2917 13.3332 12.2917ZM14.1665 8.95833H5.83317C5.4915 8.95833 5.20817 8.675 5.20817 8.33333C5.20817 7.99167 5.4915 7.70833 5.83317 7.70833H14.1665C14.5082 7.70833 14.7915 7.99167 14.7915 8.33333C14.7915 8.675 14.5082 8.95833 14.1665 8.95833Z" fill="#4F4F4F"/>
</svg>
