<svg width="448" height="108" viewBox="0 0 448 108" fill="none" xmlns="http://www.w3.org/2000/svg">
<rect width="448" height="108" rx="16" fill="#343434"/>
<path d="M100.016 65V44.14H103.824V53.24H112.7V44.14H116.536V65H112.7V56.6H103.824V65H100.016ZM120.243 65V49.768H123.911V65H120.243ZM120.243 48.06V44.14H123.911V48.06H120.243ZM127.298 70.6V49.768H130.742V52.792L130.406 52.036C130.929 51.2147 131.638 50.58 132.534 50.132C133.43 49.6653 134.466 49.432 135.642 49.432C137.079 49.432 138.377 49.7867 139.534 50.496C140.691 51.2053 141.606 52.1573 142.278 53.352C142.969 54.5467 143.314 55.8907 143.314 57.384C143.314 58.8587 142.978 60.2027 142.306 61.416C141.634 62.6293 140.719 63.5907 139.562 64.3C138.405 64.9907 137.089 65.336 135.614 65.336C134.513 65.336 133.495 65.1213 132.562 64.692C131.647 64.244 130.919 63.6093 130.378 62.788L130.966 62.06V70.6H127.298ZM135.194 61.976C136.034 61.976 136.781 61.78 137.434 61.388C138.087 60.996 138.591 60.4547 138.946 59.764C139.319 59.0733 139.506 58.28 139.506 57.384C139.506 56.488 139.319 55.704 138.946 55.032C138.591 54.3413 138.087 53.8 137.434 53.408C136.781 52.9973 136.034 52.792 135.194 52.792C134.391 52.792 133.663 52.988 133.01 53.38C132.375 53.772 131.871 54.3227 131.498 55.032C131.143 55.7227 130.966 56.5067 130.966 57.384C130.966 58.28 131.143 59.0733 131.498 59.764C131.871 60.4547 132.375 60.996 133.01 61.388C133.663 61.78 134.391 61.976 135.194 61.976ZM146.11 70.6V49.768H149.554V52.792L149.218 52.036C149.741 51.2147 150.45 50.58 151.346 50.132C152.242 49.6653 153.278 49.432 154.454 49.432C155.892 49.432 157.189 49.7867 158.346 50.496C159.504 51.2053 160.418 52.1573 161.09 53.352C161.781 54.5467 162.126 55.8907 162.126 57.384C162.126 58.8587 161.79 60.2027 161.118 61.416C160.446 62.6293 159.532 63.5907 158.374 64.3C157.217 64.9907 155.901 65.336 154.426 65.336C153.325 65.336 152.308 65.1213 151.374 64.692C150.46 64.244 149.732 63.6093 149.19 62.788L149.778 62.06V70.6H146.11ZM154.006 61.976C154.846 61.976 155.593 61.78 156.246 61.388C156.9 60.996 157.404 60.4547 157.758 59.764C158.132 59.0733 158.318 58.28 158.318 57.384C158.318 56.488 158.132 55.704 157.758 55.032C157.404 54.3413 156.9 53.8 156.246 53.408C155.593 52.9973 154.846 52.792 154.006 52.792C153.204 52.792 152.476 52.988 151.822 53.38C151.188 53.772 150.684 54.3227 150.31 55.032C149.956 55.7227 149.778 56.5067 149.778 57.384C149.778 58.28 149.956 59.0733 150.31 59.764C150.684 60.4547 151.188 60.996 151.822 61.388C152.476 61.78 153.204 61.976 154.006 61.976ZM172.371 65.336C170.878 65.336 169.515 64.9907 168.283 64.3C167.07 63.6093 166.099 62.6667 165.371 61.472C164.662 60.2773 164.307 58.9147 164.307 57.384C164.307 55.8533 164.662 54.4907 165.371 53.296C166.099 52.1013 167.07 51.1587 168.283 50.468C169.496 49.7773 170.859 49.432 172.371 49.432C173.864 49.432 175.218 49.7773 176.431 50.468C177.644 51.1587 178.606 52.1013 179.315 53.296C180.043 54.472 180.407 55.8347 180.407 57.384C180.407 58.9147 180.043 60.2773 179.315 61.472C178.587 62.6667 177.616 63.6093 176.403 64.3C175.19 64.9907 173.846 65.336 172.371 65.336ZM172.371 61.976C173.192 61.976 173.911 61.78 174.527 61.388C175.162 60.996 175.656 60.4547 176.011 59.764C176.384 59.0547 176.571 58.2613 176.571 57.384C176.571 56.488 176.384 55.704 176.011 55.032C175.656 54.3413 175.162 53.8 174.527 53.408C173.911 52.9973 173.192 52.792 172.371 52.792C171.531 52.792 170.794 52.9973 170.159 53.408C169.524 53.8 169.02 54.3413 168.647 55.032C168.292 55.704 168.115 56.488 168.115 57.384C168.115 58.2613 168.292 59.0547 168.647 59.764C169.02 60.4547 169.524 60.996 170.159 61.388C170.794 61.78 171.531 61.976 172.371 61.976ZM190.636 65.336C189.143 65.336 187.78 64.9907 186.548 64.3C185.335 63.6093 184.364 62.6667 183.636 61.472C182.927 60.2773 182.572 58.9147 182.572 57.384C182.572 55.8533 182.927 54.4907 183.636 53.296C184.364 52.1013 185.335 51.1587 186.548 50.468C187.762 49.7773 189.124 49.432 190.636 49.432C192.13 49.432 193.483 49.7773 194.696 50.468C195.91 51.1587 196.871 52.1013 197.58 53.296C198.308 54.472 198.672 55.8347 198.672 57.384C198.672 58.9147 198.308 60.2773 197.58 61.472C196.852 62.6667 195.882 63.6093 194.668 64.3C193.455 64.9907 192.111 65.336 190.636 65.336ZM190.636 61.976C191.458 61.976 192.176 61.78 192.792 61.388C193.427 60.996 193.922 60.4547 194.276 59.764C194.65 59.0547 194.836 58.2613 194.836 57.384C194.836 56.488 194.65 55.704 194.276 55.032C193.922 54.3413 193.427 53.8 192.792 53.408C192.176 52.9973 191.458 52.792 190.636 52.792C189.796 52.792 189.059 52.9973 188.424 53.408C187.79 53.8 187.286 54.3413 186.912 55.032C186.558 55.704 186.38 56.488 186.38 57.384C186.38 58.2613 186.558 59.0547 186.912 59.764C187.286 60.4547 187.79 60.996 188.424 61.388C189.059 61.78 189.796 61.976 190.636 61.976ZM208.195 65V53.044H205.507V49.768H208.195V49.264C208.195 48.1067 208.428 47.1267 208.895 46.324C209.38 45.5027 210.052 44.8773 210.911 44.448C211.769 44.0187 212.787 43.804 213.963 43.804C214.187 43.804 214.429 43.8227 214.691 43.86C214.971 43.8787 215.204 43.9067 215.391 43.944V47.108C215.204 47.0707 215.027 47.052 214.859 47.052C214.709 47.0333 214.569 47.024 214.439 47.024C213.617 47.024 212.983 47.2107 212.535 47.584C212.087 47.9387 211.863 48.4987 211.863 49.264V49.768H215.251V53.044H211.863V65H208.195ZM224.844 65.336C223.35 65.336 221.988 64.9907 220.756 64.3C219.542 63.6093 218.572 62.6667 217.844 61.472C217.134 60.2773 216.78 58.9147 216.78 57.384C216.78 55.8533 217.134 54.4907 217.844 53.296C218.572 52.1013 219.542 51.1587 220.756 50.468C221.969 49.7773 223.332 49.432 224.844 49.432C226.337 49.432 227.69 49.7773 228.904 50.468C230.117 51.1587 231.078 52.1013 231.788 53.296C232.516 54.472 232.88 55.8347 232.88 57.384C232.88 58.9147 232.516 60.2773 231.788 61.472C231.06 62.6667 230.089 63.6093 228.876 64.3C227.662 64.9907 226.318 65.336 224.844 65.336ZM224.844 61.976C225.665 61.976 226.384 61.78 227 61.388C227.634 60.996 228.129 60.4547 228.484 59.764C228.857 59.0547 229.044 58.2613 229.044 57.384C229.044 56.488 228.857 55.704 228.484 55.032C228.129 54.3413 227.634 53.8 227 53.408C226.384 52.9973 225.665 52.792 224.844 52.792C224.004 52.792 223.266 52.9973 222.632 53.408C221.997 53.8 221.493 54.3413 221.12 55.032C220.765 55.704 220.588 56.488 220.588 57.384C220.588 58.2613 220.765 59.0547 221.12 59.764C221.493 60.4547 221.997 60.996 222.632 61.388C223.266 61.78 224.004 61.976 224.844 61.976ZM235.661 65V49.768H239.105V53.156L238.825 52.652C239.18 51.5133 239.73 50.72 240.477 50.272C241.242 49.824 242.157 49.6 243.221 49.6H244.117V52.848H242.801C241.756 52.848 240.916 53.1747 240.281 53.828C239.646 54.4627 239.329 55.3587 239.329 56.516V65H235.661ZM249.71 65L256.906 44.14H261.834L269.03 65H264.886L263.402 60.52H255.338L253.826 65H249.71ZM256.43 57.16H262.31L258.838 46.772H259.902L256.43 57.16ZM271.044 65V49.768H274.488V52.764L274.208 52.232C274.563 51.3173 275.141 50.6267 275.944 50.16C276.765 49.6747 277.717 49.432 278.8 49.432C279.92 49.432 280.909 49.6747 281.768 50.16C282.645 50.6453 283.327 51.3267 283.812 52.204C284.297 53.0627 284.54 54.0613 284.54 55.2V65H280.872V56.068C280.872 55.396 280.741 54.8173 280.48 54.332C280.219 53.8467 279.855 53.4733 279.388 53.212C278.94 52.932 278.408 52.792 277.792 52.792C277.195 52.792 276.663 52.932 276.196 53.212C275.729 53.4733 275.365 53.8467 275.104 54.332C274.843 54.8173 274.712 55.396 274.712 56.068V65H271.044ZM294.726 65.336C293.251 65.336 291.935 64.9907 290.778 64.3C289.62 63.5907 288.706 62.6293 288.034 61.416C287.362 60.2027 287.026 58.8587 287.026 57.384C287.026 55.8907 287.362 54.5467 288.034 53.352C288.706 52.1573 289.62 51.2053 290.778 50.496C291.954 49.7867 293.26 49.432 294.698 49.432C295.855 49.432 296.882 49.6653 297.778 50.132C298.692 50.58 299.411 51.2147 299.934 52.036L299.374 52.792V43.804H303.042V65H299.57V62.06L299.962 62.788C299.439 63.6093 298.711 64.244 297.778 64.692C296.844 65.1213 295.827 65.336 294.726 65.336ZM295.118 61.976C295.958 61.976 296.695 61.78 297.33 61.388C297.964 60.996 298.459 60.4547 298.814 59.764C299.187 59.0733 299.374 58.28 299.374 57.384C299.374 56.5067 299.187 55.7227 298.814 55.032C298.459 54.3227 297.964 53.772 297.33 53.38C296.695 52.988 295.958 52.792 295.118 52.792C294.296 52.792 293.559 52.9973 292.906 53.408C292.252 53.8 291.739 54.3413 291.366 55.032C291.011 55.704 290.834 56.488 290.834 57.384C290.834 58.28 291.011 59.0733 291.366 59.764C291.739 60.4547 292.252 60.996 292.906 61.388C293.559 61.78 294.296 61.976 295.118 61.976ZM306.454 65V49.768H309.898V53.156L309.618 52.652C309.973 51.5133 310.523 50.72 311.27 50.272C312.035 49.824 312.95 49.6 314.014 49.6H314.91V52.848H313.594C312.549 52.848 311.709 53.1747 311.074 53.828C310.439 54.4627 310.122 55.3587 310.122 56.516V65H306.454ZM324.375 65.336C322.881 65.336 321.519 64.9907 320.287 64.3C319.073 63.6093 318.103 62.6667 317.375 61.472C316.665 60.2773 316.311 58.9147 316.311 57.384C316.311 55.8533 316.665 54.4907 317.375 53.296C318.103 52.1013 319.073 51.1587 320.287 50.468C321.5 49.7773 322.863 49.432 324.375 49.432C325.868 49.432 327.221 49.7773 328.435 50.468C329.648 51.1587 330.609 52.1013 331.319 53.296C332.047 54.472 332.411 55.8347 332.411 57.384C332.411 58.9147 332.047 60.2773 331.319 61.472C330.591 62.6667 329.62 63.6093 328.407 64.3C327.193 64.9907 325.849 65.336 324.375 65.336ZM324.375 61.976C325.196 61.976 325.915 61.78 326.531 61.388C327.165 60.996 327.66 60.4547 328.015 59.764C328.388 59.0547 328.575 58.2613 328.575 57.384C328.575 56.488 328.388 55.704 328.015 55.032C327.66 54.3413 327.165 53.8 326.531 53.408C325.915 52.9973 325.196 52.792 324.375 52.792C323.535 52.792 322.797 52.9973 322.163 53.408C321.528 53.8 321.024 54.3413 320.651 55.032C320.296 55.704 320.119 56.488 320.119 57.384C320.119 58.2613 320.296 59.0547 320.651 59.764C321.024 60.4547 321.528 60.996 322.163 61.388C322.797 61.78 323.535 61.976 324.375 61.976ZM335.192 65V49.768H338.86V65H335.192ZM335.192 48.06V44.14H338.86V48.06H335.192ZM349.331 65.336C347.856 65.336 346.54 64.9907 345.383 64.3C344.226 63.5907 343.311 62.6293 342.639 61.416C341.967 60.2027 341.631 58.8587 341.631 57.384C341.631 55.8907 341.967 54.5467 342.639 53.352C343.311 52.1573 344.226 51.2053 345.383 50.496C346.559 49.7867 347.866 49.432 349.303 49.432C350.46 49.432 351.487 49.6653 352.383 50.132C353.298 50.58 354.016 51.2147 354.539 52.036L353.979 52.792V43.804H357.647V65H354.175V62.06L354.567 62.788C354.044 63.6093 353.316 64.244 352.383 64.692C351.45 65.1213 350.432 65.336 349.331 65.336ZM349.723 61.976C350.563 61.976 351.3 61.78 351.935 61.388C352.57 60.996 353.064 60.4547 353.419 59.764C353.792 59.0733 353.979 58.28 353.979 57.384C353.979 56.5067 353.792 55.7227 353.419 55.032C353.064 54.3227 352.57 53.772 351.935 53.38C351.3 52.988 350.563 52.792 349.723 52.792C348.902 52.792 348.164 52.9973 347.511 53.408C346.858 53.8 346.344 54.3413 345.971 55.032C345.616 55.704 345.439 56.488 345.439 57.384C345.439 58.28 345.616 59.0733 345.971 59.764C346.344 60.4547 346.858 60.996 347.511 61.388C348.164 61.78 348.902 61.976 349.723 61.976Z" fill="white"/>
<path fill-rule="evenodd" clip-rule="evenodd" d="M41.7545 32.679C41.2754 33.194 41 33.9865 41 35.0163V71.647C41 72.6768 41.2754 73.4694 41.7724 73.9664L41.9022 74.0761L62.4272 53.5511V53.0899L41.8843 32.5693L41.7545 32.679Z" fill="url(#paint0_linear_5856_2242)"/>
<path fill-rule="evenodd" clip-rule="evenodd" d="M69.2563 60.419L62.4102 53.5706V53.0916L69.2585 46.2432L69.4063 46.335L77.5062 50.9379C79.8255 52.2453 79.8255 54.399 77.5062 55.7243L69.4063 60.3272C69.4041 60.3272 69.2563 60.419 69.2563 60.419Z" fill="url(#paint1_linear_5856_2242)"/>
<path fill-rule="evenodd" clip-rule="evenodd" d="M69.4027 60.3282L62.4088 53.332L41.7539 73.9869C42.5084 74.7973 43.7778 74.8891 45.1971 74.0966L69.4027 60.3282Z" fill="url(#paint2_linear_5856_2242)"/>
<path fill-rule="evenodd" clip-rule="evenodd" d="M69.4027 46.3375L45.1971 32.587C43.78 31.7766 42.5084 31.8863 41.7539 32.6967L62.4065 53.3314L69.4027 46.3375Z" fill="url(#paint3_linear_5856_2242)"/>
<path opacity="0.2" fill-rule="evenodd" clip-rule="evenodd" d="M69.2546 60.1797L45.2147 73.8384C43.8714 74.6108 42.6737 74.5571 41.9013 73.8563L41.7715 73.9862L41.9013 74.0959C42.6737 74.7944 43.8714 74.8503 45.2147 74.078L69.4203 60.3274L69.2546 60.1797Z" fill="black"/>
<path opacity="0.12" fill-rule="evenodd" clip-rule="evenodd" d="M77.5038 55.4857L69.2383 60.1804L69.386 60.3282L77.4859 55.7253C78.6456 55.0626 79.2165 54.1984 79.2165 53.332C79.1426 54.1246 78.5538 54.879 77.5038 55.4857Z" fill="black"/>
<path opacity="0.25" fill-rule="evenodd" clip-rule="evenodd" d="M45.1977 32.8267L77.5031 51.1801C78.5531 51.7689 79.1419 52.5413 79.2337 53.3338C79.2337 52.4696 78.6628 51.6032 77.5031 50.9405L45.1977 32.5871C42.8783 31.2618 41 32.3655 41 35.0162V35.2557C41 32.605 42.8783 31.5192 45.1977 32.8267Z" fill="white"/>
<defs>
<linearGradient id="paint0_linear_5856_2242" x1="60.5842" y1="34.6226" x2="27.7067" y2="43.3828" gradientUnits="userSpaceOnUse">
<stop stop-color="#00A0FF"/>
<stop offset="0.007" stop-color="#00A1FF"/>
<stop offset="0.26" stop-color="#00BEFF"/>
<stop offset="0.512" stop-color="#00D2FF"/>
<stop offset="0.76" stop-color="#00DFFF"/>
<stop offset="1" stop-color="#00E3FF"/>
</linearGradient>
<linearGradient id="paint1_linear_5856_2242" x1="80.5243" y1="53.3321" x2="40.4371" y2="53.3321" gradientUnits="userSpaceOnUse">
<stop stop-color="#FFE000"/>
<stop offset="0.409" stop-color="#FFBD00"/>
<stop offset="0.775" stop-color="#FFA500"/>
<stop offset="1" stop-color="#FF9C00"/>
</linearGradient>
<linearGradient id="paint2_linear_5856_2242" x1="65.5996" y1="57.138" x2="39.2054" y2="101.561" gradientUnits="userSpaceOnUse">
<stop stop-color="#FF3A44"/>
<stop offset="1" stop-color="#C31162"/>
</linearGradient>
<linearGradient id="paint3_linear_5856_2242" x1="36.5546" y1="20.4936" x2="48.3298" y2="40.3337" gradientUnits="userSpaceOnUse">
<stop stop-color="#32A071"/>
<stop offset="0.069" stop-color="#2DA771"/>
<stop offset="0.476" stop-color="#15CF74"/>
<stop offset="0.801" stop-color="#06E775"/>
<stop offset="1" stop-color="#00F076"/>
</linearGradient>
</defs>
</svg>
