<svg width="448" height="108" viewBox="0 0 448 108" fill="none" xmlns="http://www.w3.org/2000/svg">
<rect width="448" height="108" rx="16" fill="#343434"/>
<path d="M119.217 68.7299C118.388 70.6456 117.406 72.4089 116.269 74.0301C114.719 76.2402 113.45 77.77 112.472 78.6196C110.956 80.0139 109.331 80.7281 107.591 80.7687C106.343 80.7687 104.836 80.4133 103.083 79.6924C101.324 78.9749 99.7078 78.6195 98.2298 78.6195C96.6797 78.6195 95.0172 78.9749 93.239 79.6924C91.458 80.4133 90.0233 80.789 88.9264 80.8262C87.2582 80.8973 85.5954 80.1628 83.9356 78.6195C82.8762 77.6955 81.5512 76.1116 79.9638 73.8677C78.2608 71.4714 76.8606 68.6927 75.7637 65.5248C74.5889 62.1031 74 58.7896 74 55.5818C74 51.9072 74.794 48.7379 76.3844 46.0821C77.6343 43.9489 79.2971 42.2661 81.3783 41.0307C83.4594 39.7954 85.7081 39.1658 88.1297 39.1256C89.4548 39.1256 91.1923 39.5354 93.3517 40.341C95.5049 41.1492 96.8875 41.559 97.4937 41.559C97.9468 41.559 99.4828 41.0798 102.086 40.1244C104.549 39.2383 106.627 38.8713 108.329 39.0159C112.942 39.3882 116.408 41.2067 118.713 44.4829C114.587 46.9828 112.546 50.484 112.587 54.9756C112.624 58.4742 113.893 61.3856 116.388 63.6972C117.518 64.7701 118.781 65.5993 120.185 66.1882C119.881 67.0716 119.559 67.9177 119.217 68.7299ZM108.637 27.0969C108.637 29.8391 107.635 32.3995 105.639 34.7693C103.229 37.5866 100.314 39.2145 97.1532 38.9577C97.1109 38.6129 97.0896 38.2659 97.0895 37.9186C97.0895 35.2861 98.2355 32.4688 100.271 30.1653C101.287 28.999 102.579 28.0293 104.146 27.2557C105.71 26.4936 107.189 26.0722 108.58 26C108.62 26.3666 108.637 26.7332 108.637 27.0969Z" fill="white"/>
<path d="M147.202 64.915V44.055H151.01V53.155H159.886V44.055H163.722V64.915H159.886V56.515H151.01V64.915H147.202ZM167.429 64.915V49.683H171.097V64.915H167.429ZM167.429 47.975V44.055H171.097V47.975H167.429ZM174.483 70.515V49.683H177.927V52.707L177.591 51.951C178.114 51.1297 178.823 50.495 179.719 50.047C180.615 49.5804 181.651 49.347 182.827 49.347C184.265 49.347 185.562 49.7017 186.719 50.411C187.877 51.1204 188.791 52.0724 189.463 53.267C190.154 54.4617 190.499 55.8057 190.499 57.299C190.499 58.7737 190.163 60.1177 189.491 61.331C188.819 62.5444 187.905 63.5057 186.747 64.215C185.59 64.9057 184.274 65.251 182.799 65.251C181.698 65.251 180.681 65.0364 179.747 64.607C178.833 64.159 178.105 63.5244 177.563 62.703L178.151 61.975V70.515H174.483ZM182.379 61.891C183.219 61.891 183.966 61.695 184.619 61.303C185.273 60.911 185.777 60.3697 186.131 59.679C186.505 58.9884 186.691 58.195 186.691 57.299C186.691 56.403 186.505 55.619 186.131 54.947C185.777 54.2564 185.273 53.715 184.619 53.323C183.966 52.9124 183.219 52.707 182.379 52.707C181.577 52.707 180.849 52.903 180.195 53.295C179.561 53.687 179.057 54.2377 178.683 54.947C178.329 55.6377 178.151 56.4217 178.151 57.299C178.151 58.195 178.329 58.9884 178.683 59.679C179.057 60.3697 179.561 60.911 180.195 61.303C180.849 61.695 181.577 61.891 182.379 61.891ZM193.296 70.515V49.683H196.74V52.707L196.404 51.951C196.927 51.1297 197.636 50.495 198.532 50.047C199.428 49.5804 200.464 49.347 201.64 49.347C203.077 49.347 204.375 49.7017 205.532 50.411C206.689 51.1204 207.604 52.0724 208.276 53.267C208.967 54.4617 209.312 55.8057 209.312 57.299C209.312 58.7737 208.976 60.1177 208.304 61.331C207.632 62.5444 206.717 63.5057 205.56 64.215C204.403 64.9057 203.087 65.251 201.612 65.251C200.511 65.251 199.493 65.0364 198.56 64.607C197.645 64.159 196.917 63.5244 196.376 62.703L196.964 61.975V70.515H193.296ZM201.192 61.891C202.032 61.891 202.779 61.695 203.432 61.303C204.085 60.911 204.589 60.3697 204.944 59.679C205.317 58.9884 205.504 58.195 205.504 57.299C205.504 56.403 205.317 55.619 204.944 54.947C204.589 54.2564 204.085 53.715 203.432 53.323C202.779 52.9124 202.032 52.707 201.192 52.707C200.389 52.707 199.661 52.903 199.008 53.295C198.373 53.687 197.869 54.2377 197.496 54.947C197.141 55.6377 196.964 56.4217 196.964 57.299C196.964 58.195 197.141 58.9884 197.496 59.679C197.869 60.3697 198.373 60.911 199.008 61.303C199.661 61.695 200.389 61.891 201.192 61.891ZM219.556 65.251C218.063 65.251 216.7 64.9057 215.468 64.215C214.255 63.5244 213.284 62.5817 212.556 61.387C211.847 60.1924 211.492 58.8297 211.492 57.299C211.492 55.7684 211.847 54.4057 212.556 53.211C213.284 52.0164 214.255 51.0737 215.468 50.383C216.682 49.6924 218.044 49.347 219.556 49.347C221.05 49.347 222.403 49.6924 223.616 50.383C224.83 51.0737 225.791 52.0164 226.5 53.211C227.228 54.387 227.592 55.7497 227.592 57.299C227.592 58.8297 227.228 60.1924 226.5 61.387C225.772 62.5817 224.802 63.5244 223.588 64.215C222.375 64.9057 221.031 65.251 219.556 65.251ZM219.556 61.891C220.378 61.891 221.096 61.695 221.712 61.303C222.347 60.911 222.842 60.3697 223.196 59.679C223.57 58.9697 223.756 58.1764 223.756 57.299C223.756 56.403 223.57 55.619 223.196 54.947C222.842 54.2564 222.347 53.715 221.712 53.323C221.096 52.9124 220.378 52.707 219.556 52.707C218.716 52.707 217.979 52.9124 217.344 53.323C216.71 53.715 216.206 54.2564 215.832 54.947C215.478 55.619 215.3 56.403 215.3 57.299C215.3 58.1764 215.478 58.9697 215.832 59.679C216.206 60.3697 216.71 60.911 217.344 61.303C217.979 61.695 218.716 61.891 219.556 61.891ZM237.822 65.251C236.329 65.251 234.966 64.9057 233.734 64.215C232.521 63.5244 231.55 62.5817 230.822 61.387C230.113 60.1924 229.758 58.8297 229.758 57.299C229.758 55.7684 230.113 54.4057 230.822 53.211C231.55 52.0164 232.521 51.0737 233.734 50.383C234.947 49.6924 236.31 49.347 237.822 49.347C239.315 49.347 240.669 49.6924 241.882 50.383C243.095 51.0737 244.057 52.0164 244.766 53.211C245.494 54.387 245.858 55.7497 245.858 57.299C245.858 58.8297 245.494 60.1924 244.766 61.387C244.038 62.5817 243.067 63.5244 241.854 64.215C240.641 64.9057 239.297 65.251 237.822 65.251ZM237.822 61.891C238.643 61.891 239.362 61.695 239.978 61.303C240.613 60.911 241.107 60.3697 241.462 59.679C241.835 58.9697 242.022 58.1764 242.022 57.299C242.022 56.403 241.835 55.619 241.462 54.947C241.107 54.2564 240.613 53.715 239.978 53.323C239.362 52.9124 238.643 52.707 237.822 52.707C236.982 52.707 236.245 52.9124 235.61 53.323C234.975 53.715 234.471 54.2564 234.098 54.947C233.743 55.619 233.566 56.403 233.566 57.299C233.566 58.1764 233.743 58.9697 234.098 59.679C234.471 60.3697 234.975 60.911 235.61 61.303C236.245 61.695 236.982 61.891 237.822 61.891ZM255.38 64.915V52.959H252.692V49.683H255.38V49.179C255.38 48.0217 255.614 47.0417 256.08 46.239C256.566 45.4177 257.238 44.7924 258.096 44.363C258.955 43.9337 259.972 43.719 261.148 43.719C261.372 43.719 261.615 43.7377 261.876 43.775C262.156 43.7937 262.39 43.8217 262.576 43.859V47.023C262.39 46.9857 262.212 46.967 262.044 46.967C261.895 46.9484 261.755 46.939 261.624 46.939C260.803 46.939 260.168 47.1257 259.72 47.499C259.272 47.8537 259.048 48.4137 259.048 49.179V49.683H262.436V52.959H259.048V64.915H255.38ZM272.029 65.251C270.536 65.251 269.173 64.9057 267.941 64.215C266.728 63.5244 265.757 62.5817 265.029 61.387C264.32 60.1924 263.965 58.8297 263.965 57.299C263.965 55.7684 264.32 54.4057 265.029 53.211C265.757 52.0164 266.728 51.0737 267.941 50.383C269.154 49.6924 270.517 49.347 272.029 49.347C273.522 49.347 274.876 49.6924 276.089 50.383C277.302 51.0737 278.264 52.0164 278.973 53.211C279.701 54.387 280.065 55.7497 280.065 57.299C280.065 58.8297 279.701 60.1924 278.973 61.387C278.245 62.5817 277.274 63.5244 276.061 64.215C274.848 64.9057 273.504 65.251 272.029 65.251ZM272.029 61.891C272.85 61.891 273.569 61.695 274.185 61.303C274.82 60.911 275.314 60.3697 275.669 59.679C276.042 58.9697 276.229 58.1764 276.229 57.299C276.229 56.403 276.042 55.619 275.669 54.947C275.314 54.2564 274.82 53.715 274.185 53.323C273.569 52.9124 272.85 52.707 272.029 52.707C271.189 52.707 270.452 52.9124 269.817 53.323C269.182 53.715 268.678 54.2564 268.305 54.947C267.95 55.619 267.773 56.403 267.773 57.299C267.773 58.1764 267.95 58.9697 268.305 59.679C268.678 60.3697 269.182 60.911 269.817 61.303C270.452 61.695 271.189 61.891 272.029 61.891ZM282.847 64.915V49.683H286.291V53.071L286.011 52.567C286.365 51.4284 286.916 50.635 287.663 50.187C288.428 49.739 289.343 49.515 290.407 49.515H291.303V52.763H289.987C288.941 52.763 288.101 53.0897 287.467 53.743C286.832 54.3777 286.515 55.2737 286.515 56.431V64.915H282.847ZM298.296 64.915V49.683H301.964V64.915H298.296ZM298.296 47.975V44.055H301.964V47.975H298.296ZM315.935 65.251C314.404 65.251 312.976 64.9804 311.651 64.439C310.325 63.8977 309.168 63.1417 308.179 62.171C307.189 61.2004 306.415 60.0617 305.855 58.755C305.313 57.4297 305.043 56.0017 305.043 54.471C305.043 52.9217 305.313 51.4937 305.855 50.187C306.396 48.8804 307.161 47.7417 308.151 46.771C309.14 45.8004 310.297 45.0537 311.623 44.531C312.948 43.9897 314.385 43.719 315.935 43.719C317.484 43.719 318.921 43.9897 320.247 44.531C321.572 45.0724 322.729 45.8284 323.719 46.799C324.708 47.751 325.473 48.8804 326.015 50.187C326.575 51.4937 326.855 52.9217 326.855 54.471C326.855 56.0017 326.575 57.4297 326.015 58.755C325.455 60.0617 324.68 61.2004 323.691 62.171C322.701 63.1417 321.544 63.8977 320.219 64.439C318.912 64.9804 317.484 65.251 315.935 65.251ZM315.935 61.779C316.961 61.779 317.904 61.6017 318.763 61.247C319.621 60.8737 320.368 60.3604 321.003 59.707C321.656 59.0537 322.151 58.279 322.487 57.383C322.841 56.487 323.019 55.5164 323.019 54.471C323.019 53.4257 322.841 52.4644 322.487 51.587C322.151 50.691 321.656 49.9164 321.003 49.263C320.368 48.591 319.621 48.0777 318.763 47.723C317.904 47.3684 316.961 47.191 315.935 47.191C314.927 47.191 313.993 47.3684 313.135 47.723C312.276 48.0777 311.52 48.591 310.867 49.263C310.232 49.9164 309.737 50.691 309.383 51.587C309.028 52.4644 308.851 53.4257 308.851 54.471C308.851 55.5164 309.028 56.487 309.383 57.383C309.737 58.279 310.232 59.0537 310.867 59.707C311.52 60.3604 312.276 60.8737 313.135 61.247C313.993 61.6017 314.927 61.779 315.935 61.779ZM337.689 65.251C336.363 65.251 335.131 65.0084 333.993 64.523C332.873 64.0377 331.902 63.3657 331.081 62.507C330.278 61.6297 329.69 60.6124 329.317 59.455L332.481 58.083C332.985 59.2777 333.713 60.2204 334.665 60.911C335.617 61.583 336.69 61.919 337.885 61.919C338.557 61.919 339.135 61.8164 339.621 61.611C340.125 61.387 340.507 61.0884 340.769 60.715C341.049 60.3417 341.189 59.8937 341.189 59.371C341.189 58.755 341.002 58.251 340.629 57.859C340.274 57.4484 339.733 57.131 339.005 56.907L335.001 55.619C333.377 55.115 332.154 54.359 331.333 53.351C330.511 52.343 330.101 51.1577 330.101 49.795C330.101 48.6004 330.39 47.5457 330.969 46.631C331.566 45.7164 332.387 45.007 333.433 44.503C334.497 43.9804 335.71 43.719 337.073 43.719C338.323 43.719 339.471 43.943 340.517 44.391C341.562 44.8204 342.458 45.427 343.205 46.211C343.97 46.9764 344.539 47.8817 344.913 48.927L341.777 50.327C341.366 49.2817 340.75 48.479 339.929 47.919C339.107 47.3404 338.155 47.051 337.073 47.051C336.438 47.051 335.878 47.163 335.393 47.387C334.907 47.5924 334.525 47.891 334.245 48.283C333.983 48.6564 333.853 49.1044 333.853 49.627C333.853 50.2057 334.039 50.719 334.413 51.167C334.786 51.5964 335.355 51.9324 336.121 52.175L339.957 53.379C341.618 53.9204 342.859 54.667 343.681 55.619C344.521 56.571 344.941 57.747 344.941 59.147C344.941 60.3417 344.633 61.3964 344.017 62.311C343.401 63.2257 342.551 63.9444 341.469 64.467C340.386 64.9897 339.126 65.251 337.689 65.251Z" fill="white"/>
</svg>
