<svg width="512" height="512" viewBox="0 0 512 512" fill="none" xmlns="http://www.w3.org/2000/svg">
<rect width="512" height="512" fill="#4896AE"/>
<path d="M327.714 127.182L340.356 103.54C342.852 99.0829 344.108 94.0388 343.994 88.9319C343.881 83.825 342.401 78.8417 339.71 74.5C337.483 70.8416 334.36 67.811 330.637 65.694C326.914 63.577 322.712 62.4433 318.43 62.4H316.292C305.834 62.4 296.43 69.1628 292.546 79.4764L282.506 107.877C298.892 110.646 314.387 117.261 327.72 127.18L327.714 127.182Z" fill="#D18D78"/>
<path d="M322.109 74.5C318.928 69.4267 314.071 65.6269 308.381 63.7596C304.748 65.0549 301.445 67.135 298.708 69.8518C295.97 72.5687 293.864 75.8556 292.541 79.4786L282.502 107.881C293.703 109.815 304.515 113.56 314.512 118.971L322.762 103.544C325.257 99.0862 326.513 94.041 326.398 88.9332C326.283 83.8254 324.802 78.8416 322.109 74.5Z" fill="#BC7764"/>
<path d="M229.499 107.877L219.459 79.4764C215.575 69.1628 206.169 62.4 195.712 62.4H193.575C189.292 62.4433 185.091 63.577 181.368 65.694C177.644 67.811 174.522 70.8416 172.294 74.5C169.602 78.8412 168.122 83.8243 168.008 88.9312C167.893 94.038 169.149 99.0824 171.643 103.54L184.293 127.181C197.625 117.263 213.119 110.649 229.503 107.882L229.499 107.877Z" fill="#D18D78"/>
<path d="M219.46 79.4754C218.136 75.8524 216.031 72.5656 213.293 69.8487C210.556 67.1318 207.253 65.0517 203.62 63.7564C197.931 65.6253 193.075 69.4262 189.895 74.5001C187.203 78.8414 185.723 83.8244 185.608 88.9313C185.494 94.0382 186.749 99.0826 189.244 103.54L197.494 118.964C207.489 113.555 218.298 109.81 229.497 107.876L219.46 79.4754Z" fill="#BC7764"/>
<path d="M379.201 377.404C365.6 384.423 350.507 388.058 335.201 388C312.053 376.426 286.528 370.4 260.647 370.4H251.356C225.475 370.4 199.95 376.426 176.801 388C161.496 388.058 146.403 384.423 132.801 377.404V396.8C132.801 410.804 138.364 424.234 148.266 434.136C158.168 444.038 171.598 449.6 185.601 449.6H326.401C340.405 449.6 353.835 444.038 363.737 434.136C373.639 424.234 379.201 410.804 379.201 396.8V377.403V377.404Z" fill="#D18D78"/>
<path d="M370.342 208.402C369.424 181.028 357.901 155.083 338.206 136.049C318.511 117.015 292.188 106.383 264.799 106.4H247.199C219.809 106.381 193.485 117.013 173.79 136.047C154.095 155.082 142.572 181.028 141.656 208.403C142.631 207.24 143.704 206.055 144.875 204.847C151.02 198.522 159.197 194.397 168.015 194.397C177.348 194.402 186.298 198.112 192.896 204.714C199.494 211.315 203.2 220.266 203.199 229.6C203.141 230.805 203.02 232.006 202.836 233.198L221.78 226.598C232.781 222.761 244.349 220.801 255.999 220.8C267.649 220.799 279.217 222.758 290.218 226.593L309.162 233.193C308.978 232.003 308.857 230.803 308.799 229.6C308.799 220.267 312.506 211.316 319.104 204.715C325.701 198.114 334.651 194.404 343.984 194.4C352.801 194.4 360.979 198.522 367.123 204.85C368.297 206.057 369.369 207.242 370.342 208.404V208.402Z" fill="#E0A089"/>
<path d="M343.984 194.4C352.802 194.4 360.979 198.523 367.123 204.85C367.307 205.04 367.453 205.22 367.629 205.408C362.176 182.233 349.052 161.581 330.386 146.803C311.72 132.026 288.607 123.99 264.8 124H247.2C223.391 123.989 200.278 132.024 181.611 146.802C162.945 161.579 149.821 182.232 144.369 205.408C144.549 205.219 144.692 205.037 144.876 204.848C151.02 198.523 159.197 194.398 168.015 194.398C177.348 194.402 186.298 198.113 192.896 204.714C199.494 211.316 203.2 220.267 203.2 229.6C203.142 230.805 203.021 232.006 202.837 233.199L221.781 226.599C243.939 218.874 268.06 218.874 290.218 226.599L309.163 233.199C308.978 232.006 308.857 230.805 308.8 229.6C308.8 220.267 312.506 211.317 319.104 204.716C325.702 198.115 334.651 194.405 343.984 194.4Z" fill="#CC8C79"/>
<path d="M335.2 388C312.051 376.426 286.526 370.4 260.645 370.4H251.354C225.473 370.4 199.948 376.426 176.8 388C128.198 388 88.7996 352.54 88.7996 308.8C88.7996 278.913 107.208 252.911 134.363 239.428C131.516 229.684 131.283 218.842 144.875 204.848C151.02 198.523 159.197 194.398 168.015 194.398C177.348 194.402 186.298 198.113 192.896 204.714C199.494 211.315 203.2 220.267 203.2 229.6C203.142 230.805 203.021 232.006 202.837 233.198L221.781 226.598C232.781 222.761 244.349 220.801 256 220.8C267.65 220.8 279.217 222.758 290.218 226.594L309.163 233.194C308.979 232.003 308.858 230.804 308.8 229.6C308.8 220.267 312.506 211.316 319.104 204.715C325.702 198.115 334.651 194.404 343.984 194.4C352.802 194.4 360.979 198.523 367.124 204.85C380.718 218.844 380.483 229.686 377.637 239.43C404.791 252.911 423.2 278.913 423.2 308.8C423.2 352.54 383.801 388 335.2 388Z" fill="#E0A089"/>
<path d="M91.1241 291.438C100.13 326.575 135.025 352.8 176.8 352.8C199.948 341.226 225.474 335.2 251.355 335.2H260.645C286.526 335.2 312.051 341.226 335.2 352.8C376.975 352.8 411.87 326.575 420.876 291.438C415.288 269.06 399.352 250.211 377.637 239.428C380.484 229.684 380.717 218.842 367.123 204.848C360.979 198.523 352.802 194.398 343.984 194.398C334.651 194.402 325.702 198.113 319.104 204.714C312.505 211.315 308.799 220.267 308.8 229.6C308.858 230.805 308.979 232.006 309.163 233.198L290.219 226.598C268.06 218.873 243.94 218.873 221.781 226.598L202.837 233.198C203.021 232.006 203.142 230.805 203.2 229.6C203.2 220.267 199.493 211.316 192.895 204.715C186.298 198.115 177.348 194.404 168.015 194.4C159.198 194.4 151.02 198.523 144.877 204.85C131.282 218.844 131.516 229.686 134.363 239.43C112.648 250.211 96.7121 269.06 91.1241 291.438Z" fill="#F2B9A1"/>
<path d="M203.2 414.4H220.8C225.468 414.4 229.945 412.546 233.246 409.245C236.546 405.945 238.4 401.468 238.4 396.8V370.968C220.21 372.365 202.373 376.739 185.6 383.916V396.8C185.6 401.468 187.455 405.945 190.755 409.245C194.056 412.546 198.533 414.4 203.2 414.4Z" fill="#E2E7F6"/>
<path d="M212.001 396.8H229.601C232.7 396.784 235.737 395.941 238.401 394.359V370.968C223.416 372.163 208.661 375.375 194.534 380.516C194.852 384.934 196.83 389.068 200.07 392.089C203.309 395.109 207.572 396.792 212.001 396.8Z" fill="#F2F2F2"/>
<path d="M326.401 383.916C309.628 376.739 291.791 372.365 273.601 370.968V396.8C273.601 401.468 275.455 405.945 278.756 409.245C282.056 412.546 286.533 414.4 291.201 414.4H308.801C313.469 414.4 317.945 412.546 321.246 409.245C324.547 405.945 326.401 401.468 326.401 396.8V383.916Z" fill="#E2E7F6"/>
<path d="M282.401 396.8H300.001C304.43 396.792 308.691 395.11 311.931 392.09C315.171 389.071 317.149 384.938 317.468 380.52C303.342 375.378 288.586 372.165 273.601 370.968V394.359C276.265 395.941 279.303 396.784 282.401 396.8Z" fill="#F2F2F2"/>
<path d="M185.599 326.4C200.179 326.4 211.999 314.58 211.999 300C211.999 285.419 200.179 273.6 185.599 273.6C171.019 273.6 159.199 285.419 159.199 300C159.199 314.58 171.019 326.4 185.599 326.4Z" fill="#A35F4F"/>
<path d="M185.6 273.6C183.031 273.636 180.481 274.052 178.034 274.834C177.252 277.281 176.836 279.831 176.8 282.4C176.8 289.402 179.581 296.116 184.532 301.067C189.483 306.018 196.198 308.8 203.2 308.8C205.769 308.763 208.318 308.347 210.765 307.566C211.547 305.118 211.963 302.569 212 300C212 292.998 209.218 286.283 204.267 281.332C199.316 276.381 192.601 273.6 185.6 273.6Z" fill="#BC7764"/>
<path d="M326.399 326.4C340.979 326.4 352.799 314.58 352.799 300C352.799 285.419 340.979 273.6 326.399 273.6C311.818 273.6 299.999 285.419 299.999 300C299.999 314.58 311.818 326.4 326.399 326.4Z" fill="#A35F4F"/>
<path d="M326.4 273.6C323.831 273.636 321.281 274.052 318.834 274.834C318.052 277.281 317.636 279.831 317.6 282.4C317.6 289.402 320.381 296.116 325.332 301.067C330.283 306.018 336.998 308.8 344 308.8C346.569 308.763 349.118 308.347 351.566 307.566C352.347 305.118 352.763 302.569 352.8 300C352.8 292.998 350.018 286.283 345.067 281.332C340.117 276.381 333.402 273.6 326.4 273.6Z" fill="#BC7764"/>
<path d="M387.648 234.843C388.828 226.531 387.571 216.522 378.887 205.094C378.023 189.703 374.04 174.648 367.179 160.844C360.318 147.04 350.722 134.775 338.974 124.794L348.017 107.875C351.269 102.028 352.903 95.4203 352.752 88.7318C352.601 82.0433 350.67 75.5159 347.158 69.8217C344.146 64.8955 339.925 60.82 334.897 57.9812C329.869 55.1424 324.199 53.6344 318.425 53.6H316.285C302.071 53.6 289.516 62.5375 284.244 76.5405L276.585 98.2039C272.67 97.8053 268.736 97.6037 264.8 97.6H247.2C243.264 97.6037 239.33 97.8052 235.415 98.2039L227.697 76.37C222.484 62.5375 209.929 53.6 195.72 53.6H193.575C187.801 53.6338 182.132 55.141 177.104 57.9788C172.076 60.8166 167.855 64.891 164.842 69.8162C161.34 75.4784 159.406 81.9697 159.237 88.6253C159.069 95.2808 160.672 101.862 163.884 107.694L173.029 124.785C161.28 134.767 151.682 147.033 144.82 160.839C137.959 174.645 133.976 189.701 133.114 205.094C124.424 216.522 123.172 226.531 124.352 234.843C96.83 250.977 80 278.76 80 308.8C80 339.617 97.5472 366.737 124 382.46V396.8C124.018 413.132 130.514 428.789 142.062 440.338C153.611 451.886 169.268 458.382 185.6 458.4H326.4C342.732 458.382 358.389 451.886 369.938 440.338C381.486 428.789 387.982 413.132 388 396.8V382.46C414.453 366.737 432 339.617 432 308.8C432 278.76 415.17 250.977 387.648 234.843ZM300.778 82.5784C303.377 75.6649 309.468 71.2 316.288 71.2H318.427C321.219 71.2433 323.954 71.9985 326.373 73.3941C328.792 74.7896 330.815 76.7794 332.25 79.175C334.109 82.2063 335.122 85.6804 335.183 89.2359C335.244 92.7913 334.352 96.2983 332.599 99.3919L324.58 114.388C315.107 108.614 304.84 104.26 294.104 101.464L300.778 82.5784ZM179.305 99.2159C177.591 96.1371 176.73 92.6572 176.808 89.1347C176.887 85.6121 177.903 82.1742 179.752 79.175C181.187 76.7794 183.21 74.7896 185.629 73.3941C188.048 71.9985 190.783 71.2433 193.575 71.2H195.72C199.131 71.2694 202.439 72.3805 205.2 74.3844C207.962 76.3882 210.044 79.1887 211.167 82.4101L217.903 101.463C207.169 104.259 196.903 108.613 187.433 114.386L179.305 99.2159ZM247.2 115.2H264.8C286.442 115.109 307.484 122.31 324.532 135.642C341.58 148.975 353.641 167.661 358.767 188.688C354.098 186.69 349.078 185.641 344 185.6H343.982C333.816 185.62 323.969 189.152 316.109 195.6C308.249 202.048 302.858 211.014 300.851 220.98L293.121 218.282C269.079 209.946 242.93 209.946 218.888 218.282L211.157 220.98C209.15 211.013 203.759 202.047 195.898 195.599C188.037 189.151 178.189 185.619 168.022 185.6H168C162.92 185.64 157.898 186.69 153.227 188.688C158.354 167.661 170.415 148.973 187.464 135.641C204.514 122.308 225.557 115.108 247.2 115.2ZM370.4 396.8C370.386 408.465 365.746 419.649 357.498 427.898C349.249 436.146 338.065 440.786 326.4 440.8H185.6C173.935 440.786 162.751 436.146 154.502 427.898C146.254 419.649 141.614 408.465 141.6 396.8V390.688C152.896 394.728 164.803 396.795 176.8 396.8C176.808 403.799 179.592 410.51 184.541 415.459C189.49 420.408 196.201 423.192 203.2 423.2H220.8C227.799 423.192 234.51 420.408 239.459 415.459C244.408 410.51 247.192 403.799 247.2 396.8V379.322C248.585 379.286 249.97 379.2 251.355 379.2H260.645C262.03 379.2 263.415 379.286 264.8 379.322V396.8C264.808 403.799 267.592 410.51 272.541 415.459C277.49 420.408 284.201 423.192 291.2 423.2H308.8C315.799 423.192 322.51 420.408 327.459 415.459C332.408 410.51 335.192 403.799 335.2 396.8C347.197 396.795 359.104 394.728 370.4 390.688V396.8ZM194.4 389.905C205.746 385.53 217.557 382.469 229.6 380.784V396.8C229.597 399.133 228.669 401.369 227.019 403.019C225.369 404.669 223.133 405.597 220.8 405.6H203.2C200.867 405.597 198.631 404.669 196.981 403.019C195.331 401.369 194.403 399.133 194.4 396.8V389.905ZM282.4 380.784C294.443 382.469 306.254 385.53 317.6 389.905V396.8C317.597 399.133 316.669 401.369 315.019 403.019C313.369 404.669 311.133 405.597 308.8 405.6H291.2C288.867 405.597 286.631 404.669 284.981 403.019C283.331 401.369 282.403 399.133 282.4 396.8V380.784ZM337.202 379.178C313.327 367.639 287.159 361.631 260.642 361.6H251.351C224.835 361.631 198.666 367.639 174.791 379.178C132.048 378.229 97.6 347.025 97.6 308.8C97.6 283.328 113.185 259.769 138.278 247.31C140.129 246.391 141.597 244.851 142.426 242.958C143.255 241.066 143.392 238.942 142.812 236.959C140.832 230.208 139.86 222.646 151.187 210.979C156.059 205.965 162.031 203.202 168.004 203.202H168.013C175.01 203.214 181.716 206 186.662 210.948C191.608 215.896 194.391 222.604 194.4 229.6C194.382 230.012 194.337 230.422 194.267 230.829L194.082 232.316C193.934 233.788 194.159 235.273 194.737 236.635C195.315 237.997 196.227 239.191 197.388 240.107C198.55 241.023 199.924 241.631 201.383 241.876C202.842 242.121 204.339 241.994 205.735 241.506L224.675 234.906C244.965 227.869 267.034 227.869 287.325 234.906L306.265 241.506C307.661 241.994 309.158 242.121 310.617 241.876C312.076 241.631 313.45 241.023 314.612 240.107C315.773 239.191 316.685 237.997 317.263 236.635C317.841 235.273 318.066 233.788 317.918 232.316L317.733 230.829C317.663 230.422 317.618 230.012 317.6 229.6C317.608 222.603 320.391 215.895 325.337 210.946C330.283 205.998 336.99 203.212 343.987 203.2H344C349.973 203.2 355.945 205.963 360.818 210.977C372.148 222.644 371.169 230.206 369.192 236.957C368.613 238.94 368.749 241.064 369.578 242.956C370.407 244.849 371.876 246.389 373.726 247.308C398.815 259.769 414.4 283.328 414.4 308.8C414.4 347.025 379.952 378.229 337.202 379.178Z" fill="black"/>
<path d="M185.599 264.8C178.637 264.8 171.831 266.864 166.043 270.732C160.254 274.6 155.743 280.097 153.078 286.529C150.414 292.961 149.717 300.039 151.075 306.867C152.434 313.695 155.786 319.967 160.709 324.89C165.632 329.813 171.904 333.165 178.732 334.523C185.56 335.881 192.637 335.184 199.069 332.52C205.501 329.856 210.999 325.344 214.867 319.556C218.735 313.767 220.799 306.961 220.799 300C220.788 290.667 217.077 281.72 210.478 275.121C203.879 268.522 194.931 264.81 185.599 264.8ZM185.599 317.6C182.118 317.6 178.715 316.567 175.821 314.633C172.927 312.7 170.671 309.951 169.339 306.735C168.007 303.519 167.658 299.98 168.337 296.566C169.016 293.152 170.692 290.016 173.154 287.554C175.615 285.093 178.751 283.417 182.165 282.738C185.579 282.059 189.118 282.407 192.334 283.739C195.55 285.071 198.299 287.327 200.233 290.222C202.167 293.116 203.199 296.519 203.199 300C203.194 304.666 201.339 309.14 198.039 312.44C194.739 315.739 190.265 317.595 185.599 317.6Z" fill="black"/>
<path d="M326.4 264.8C319.438 264.8 312.632 266.864 306.844 270.732C301.055 274.6 296.543 280.097 293.879 286.529C291.215 292.961 290.518 300.039 291.876 306.867C293.234 313.695 296.587 319.967 301.509 324.89C306.432 329.813 312.704 333.165 319.532 334.523C326.361 335.881 333.438 335.184 339.87 332.52C346.302 329.856 351.8 325.344 355.667 319.556C359.535 313.767 361.6 306.961 361.6 300C361.589 290.667 357.877 281.72 351.278 275.121C344.679 268.522 335.732 264.81 326.4 264.8ZM326.4 317.6C322.919 317.6 319.516 316.567 316.622 314.633C313.727 312.7 311.471 309.951 310.139 306.735C308.807 303.519 308.459 299.98 309.138 296.566C309.817 293.152 311.493 290.016 313.955 287.554C316.416 285.093 319.552 283.417 322.966 282.738C326.38 282.059 329.919 282.407 333.135 283.739C336.351 285.071 339.1 287.327 341.034 290.222C342.967 293.116 344 296.519 344 300C343.995 304.666 342.139 309.14 338.84 312.44C335.54 315.739 331.066 317.595 326.4 317.6Z" fill="black"/>
<circle cx="226.607" cy="183.918" r="16.2897" fill="black"/>
<circle cx="280.907" cy="183.918" r="16.2897" fill="black"/>
</svg>
